<svg width="22" height="22" viewBox="0 0 22 22" fill="none" xmlns="http://www.w3.org/2000/svg">
<g clip-path="url(#clip0_3813_252)">
<path d="M17.0431 13.5269L14.7915 13.2698C14.2508 13.2078 13.719 13.3939 13.3378 13.7751L11.7068 15.4061C9.19818 14.1296 7.14167 12.082 5.86522 9.56454L7.5051 7.92465C7.88627 7.54349 8.07242 7.01163 8.01037 6.47091L7.7533 4.23712C7.64693 3.34183 6.89347 2.66814 5.98932 2.66814H4.4558C3.45414 2.66814 2.62089 3.50139 2.68294 4.50305C3.15275 12.0731 9.20704 18.1186 16.7683 18.5884C17.7699 18.6504 18.6032 17.8172 18.6032 16.8155V15.282C18.612 14.3867 17.9383 13.6332 17.0431 13.5269Z" fill="#2D2D2D"/>
</g>
<defs>
<clipPath id="clip0_3813_252">
<rect width="21.2742" height="21.2742" fill="white"/>
</clipPath>
</defs>
</svg>
