<svg width="146" height="30" viewBox="0 0 146 30" fill="none" xmlns="http://www.w3.org/2000/svg">
<path d="M4.59991 29.6189H0L10.3358 0.897541H15.3424L25.6782 29.6189H21.0782L12.9583 6.11451H12.7339L4.59991 29.6189ZM5.37123 18.3716H20.2929V22.0179H5.37123V18.3716Z" fill="#2D2D2D"/>
<path d="M39.2339 25.9867V29.6189H26.5V25.9867H39.2339Z" fill="#2D2D2D"/>
<path d="M49.0582 29.6189C47.3192 29.6189 45.7672 29.1748 44.4022 28.2866C43.0465 27.3891 41.9807 26.1129 41.2047 24.4581C40.438 22.7939 40.0547 20.7978 40.0547 18.4698C40.0547 16.1418 40.4427 14.1503 41.2187 12.4955C42.004 10.8406 43.0792 9.57379 44.4442 8.69495C45.8092 7.8161 47.3566 7.37668 49.0862 7.37668C50.4232 7.37668 51.4984 7.60107 52.3118 8.04984C53.1345 8.48926 53.7703 9.00348 54.219 9.59249C54.6772 10.1815 55.0324 10.7004 55.2849 11.1492H55.5373V0.476818H59.7305V29.1982H55.6355V25.8464H55.2849C55.0324 26.3046 54.6678 26.8281 54.191 27.4171C53.7235 28.0062 53.0784 28.5204 52.2557 28.9598C51.4329 29.3992 50.3671 29.6189 49.0582 29.6189ZM49.9838 26.0428C51.1898 26.0428 52.2089 25.7249 53.041 25.0891C53.8825 24.444 54.5182 23.5512 54.9483 22.4105C55.3877 21.2699 55.6074 19.9423 55.6074 18.4277C55.6074 16.9318 55.3924 15.6229 54.9623 14.5009C54.5322 13.379 53.9012 12.5048 53.0691 11.8784C52.237 11.252 51.2085 10.9388 49.9838 10.9388C48.7216 10.9388 47.6698 11.266 46.8283 11.9205C45.9869 12.575 45.3511 13.4678 44.9211 14.5991C44.5003 15.7304 44.29 17.0066 44.29 18.4277C44.29 19.8675 44.505 21.1624 44.9351 22.3124C45.3651 23.4623 46.0009 24.3739 46.8424 25.0471C47.6932 25.7109 48.7403 26.0428 49.9838 26.0428Z" fill="#2D2D2D"/>
<path d="M70.8063 29.6189C68.684 29.6189 66.8562 29.1655 65.3229 28.2586C63.7989 27.3423 62.6209 26.0568 61.7888 24.402C60.9661 22.7378 60.5547 20.7884 60.5547 18.5539C60.5547 16.3474 60.9661 14.4028 61.7888 12.7199C62.6209 11.037 63.7802 9.72338 65.2668 8.77909C66.7627 7.8348 68.511 7.36266 70.5118 7.36266C71.7272 7.36266 72.9053 7.56367 74.0459 7.9657C75.1865 8.36772 76.2103 8.99881 77.1172 9.85895C78.0241 10.7191 78.7393 11.8364 79.2629 13.2107C79.7864 14.5757 80.0482 16.2352 80.0482 18.1893V19.6758H62.9248V16.5344H75.9391C75.9391 15.4312 75.7148 14.4542 75.266 13.6034C74.8172 12.7432 74.1861 12.0654 73.3727 11.5699C72.5687 11.0744 71.6244 10.8266 70.5399 10.8266C69.3618 10.8266 68.3334 11.1164 67.4546 11.6961C66.5851 12.2664 65.9119 13.0144 65.4351 13.94C64.9676 14.8562 64.7339 15.8519 64.7339 16.9271V19.3813C64.7339 20.8211 64.9863 22.0459 65.4912 23.0556C66.0054 24.0654 66.7206 24.8367 67.6369 25.3696C68.5531 25.8932 69.6236 26.155 70.8484 26.155C71.6431 26.155 72.3677 26.0428 73.0221 25.8184C73.6766 25.5847 74.2422 25.2387 74.719 24.7806C75.1959 24.3225 75.5605 23.7568 75.8129 23.0837L79.7817 23.7989C79.4639 24.9676 78.8936 25.9914 78.0708 26.8702C77.2574 27.7397 76.2336 28.4175 74.9995 28.9037C73.7747 29.3805 72.377 29.6189 70.8063 29.6189Z" fill="#2D2D2D"/>
<path d="M85.0682 16.8289V29.6189H80.875V8.07789H84.8999V11.5839H85.1664C85.6619 10.4433 86.4379 9.52705 87.4944 8.83519C88.5602 8.14333 89.9019 7.79741 91.5193 7.79741C92.9872 7.79741 94.2727 8.10593 95.3759 8.723C96.4792 9.33071 97.3346 10.2376 97.9423 11.4437C98.5501 12.6497 98.8539 14.141 98.8539 15.9174V29.6189H94.6607V16.4222C94.6607 14.8609 94.254 13.6408 93.4406 12.7619C92.6272 11.8737 91.5099 11.4296 90.0888 11.4296C89.1165 11.4296 88.2517 11.64 87.4944 12.0607C86.7464 12.4815 86.1527 13.0985 85.7133 13.9119C85.2832 14.716 85.0682 15.6883 85.0682 16.8289Z" fill="#2D2D2D"/>
<path d="M111.438 7.79619V11.162H99.6719V7.79619H111.438ZM102.827 2.63531H107.021V23.0124C107.021 23.8257 107.142 24.4381 107.385 24.8495C107.628 25.2515 107.941 25.5273 108.325 25.6769C108.717 25.8172 109.143 25.8873 109.601 25.8873C109.938 25.8873 110.232 25.8639 110.484 25.8172C110.737 25.7704 110.933 25.733 111.073 25.705L111.831 29.1689C111.588 29.2624 111.242 29.3559 110.793 29.4494C110.344 29.5523 109.783 29.6084 109.11 29.6177C108.007 29.6364 106.978 29.4401 106.025 29.0287C105.071 28.6173 104.3 27.9816 103.711 27.1214C103.122 26.2613 102.827 25.1814 102.827 23.8818V2.63531Z" fill="#2D2D2D"/>
<path d="M119.935 29.6189C118.57 29.6189 117.336 29.3665 116.232 28.8616C115.129 28.3474 114.255 27.6041 113.61 26.6318C112.974 25.6595 112.656 24.4674 112.656 23.0556C112.656 21.8402 112.89 20.8398 113.357 20.0545C113.825 19.2691 114.456 18.6474 115.251 18.1893C116.045 17.7312 116.934 17.3852 117.915 17.1515C118.897 16.9178 119.897 16.7401 120.916 16.6186C122.207 16.469 123.254 16.3474 124.058 16.2539C124.862 16.1511 125.446 15.9875 125.811 15.7631C126.175 15.5387 126.358 15.1741 126.358 14.6692V14.5711C126.358 13.3463 126.012 12.3973 125.32 11.7242C124.638 11.051 123.618 10.7144 122.263 10.7144C120.851 10.7144 119.738 11.0276 118.925 11.654C118.121 12.2711 117.565 12.9583 117.256 13.7156L113.315 12.818C113.783 11.5091 114.465 10.4526 115.363 9.64859C116.27 8.83519 117.312 8.24618 118.49 7.88155C119.668 7.50757 120.907 7.32059 122.207 7.32059C123.067 7.32059 123.978 7.42343 124.941 7.62912C125.914 7.82545 126.821 8.19008 127.662 8.723C128.513 9.25591 129.209 10.0179 129.752 11.0089C130.294 11.9906 130.565 13.2668 130.565 14.8375V29.1421H126.47V26.197H126.302C126.031 26.7393 125.624 27.2722 125.082 27.7958C124.539 28.3194 123.843 28.7541 122.992 29.1C122.141 29.446 121.122 29.6189 119.935 29.6189ZM120.846 26.2531C122.006 26.2531 122.997 26.0241 123.819 25.566C124.652 25.1078 125.283 24.5095 125.713 23.7709C126.152 23.0229 126.372 22.2235 126.372 21.3728V18.596C126.222 18.7456 125.932 18.8858 125.502 19.0167C125.082 19.1382 124.6 19.2458 124.058 19.3393C123.516 19.4234 122.987 19.5029 122.473 19.5777C121.959 19.6431 121.529 19.6992 121.183 19.746C120.37 19.8488 119.626 20.0218 118.953 20.2648C118.289 20.5079 117.756 20.8585 117.354 21.3167C116.962 21.7654 116.765 22.3638 116.765 23.1117C116.765 24.1495 117.149 24.9349 117.915 25.4678C118.682 25.9914 119.659 26.2531 120.846 26.2531Z" fill="#2D2D2D"/>
<path d="M136.048 1.48558L136.672 1.58913C137.123 1.70772 137.566 1.87056 137.958 2.12828C138.361 1.88271 138.799 1.70425 139.258 1.58913L139.882 1.48558C140.063 1.49512 140.257 1.47256 140.436 1.48558C142.978 1.66954 143.91 4.32251 143.063 6.47798C142.808 7.12763 142.368 7.64076 142.079 8.26467C141.472 9.57322 141.595 10.9732 141.048 12.2664C140.553 13.4358 139.59 13.7847 139 12.444C138.619 11.5783 138.604 10.7554 138.42 9.86102C138.375 9.6438 138.123 8.72977 137.78 9.16162C137.473 9.54863 137.445 10.419 137.357 10.909C137.216 11.6943 136.653 14.1306 135.404 13.061C134.459 12.2525 134.469 9.89891 134.039 8.72254C133.679 7.73795 132.971 7.01396 132.706 5.99205C132.165 3.9031 133.165 1.65392 135.494 1.48529H136.048V1.48558Z" fill="#198353"/>
</svg>
