<svg width="97" height="117" viewBox="0 0 97 117" fill="none" xmlns="http://www.w3.org/2000/svg">
<rect width="96.7023" height="117" rx="15" fill="#F2F2F2"/>
<g opacity="0.3">
<path opacity="0.3" d="M70.9785 35.3808C68.8267 35.3787 66.7636 34.5233 65.2416 33.0021C63.7197 31.4809 62.8633 29.4182 62.8602 27.2664V16H26.5895C23.781 16 21.0875 17.1157 19.1016 19.1016C17.1157 21.0876 16 23.781 16 26.5895V90.4261C16.0042 93.2319 17.1217 95.9214 19.1072 97.9039C21.0927 99.8865 23.7837 101 26.5895 101H70.1127C72.9213 101 75.6147 99.8843 77.6006 97.8983C79.5866 95.9124 80.7023 93.219 80.7023 90.4104V35.365L70.9785 35.3808Z" fill="#FF3E4C"/>
</g>
<path d="M80.6937 35.3808H70.9699C68.8181 35.3787 66.755 34.5233 65.233 33.0021C63.7111 31.4809 62.8547 29.4182 62.8516 27.2664V16L80.6937 35.3808Z" fill="#FF3E4C"/>
<path d="M43.9497 48.9553H26.7686C26.3783 48.9553 26.0039 48.8002 25.7279 48.5242C25.4519 48.2482 25.2969 47.8738 25.2969 47.4835C25.2964 47.2899 25.334 47.0981 25.4077 46.9191C25.4815 46.7401 25.5898 46.5773 25.7265 46.4402C25.8632 46.3032 26.0257 46.1944 26.2045 46.1202C26.3833 46.046 26.575 46.0078 26.7686 46.0078H43.9497C44.3383 46.013 44.7092 46.1713 44.9818 46.4483C45.2544 46.7253 45.4067 47.0988 45.4057 47.4874C45.4036 47.8741 45.2499 48.2445 44.9777 48.519C44.7054 48.7935 44.3363 48.9501 43.9497 48.9553Z" fill="#FF3E4C"/>
<path d="M43.9497 57.7521H26.7686C26.3783 57.7521 26.0039 57.5971 25.7279 57.3211C25.4519 57.045 25.2969 56.6707 25.2969 56.2804C25.2964 56.0868 25.334 55.895 25.4077 55.7159C25.4815 55.5369 25.5898 55.3742 25.7265 55.2371C25.8632 55.1 26.0257 54.9913 26.2045 54.9171C26.3833 54.8429 26.575 54.8047 26.7686 54.8047H43.9497C44.3404 54.8057 44.7147 54.9616 44.9906 55.2383C45.2665 55.5149 45.4214 55.8897 45.4214 56.2804C45.4204 56.6704 45.265 57.0441 44.9892 57.3199C44.7134 57.5957 44.3397 57.7511 43.9497 57.7521Z" fill="#FF3E4C"/>
<path d="M43.9497 66.5568H26.7686C26.575 66.5568 26.3833 66.5186 26.2045 66.4444C26.0257 66.3702 25.8632 66.2615 25.7265 66.1244C25.5898 65.9873 25.4815 65.8246 25.4077 65.6456C25.334 65.4665 25.2964 65.2747 25.2969 65.0811C25.2969 64.6908 25.4519 64.3165 25.7279 64.0405C26.0039 63.7645 26.3783 63.6094 26.7686 63.6094H43.9497C44.3397 63.6104 44.7134 63.7658 44.9892 64.0416C45.265 64.3174 45.4204 64.6911 45.4214 65.0811C45.4214 65.4718 45.2665 65.8466 44.9906 66.1232C44.7147 66.3999 44.3404 66.5558 43.9497 66.5568Z" fill="#FF3E4C"/>
<path d="M43.9497 75.3615H26.7686C26.575 75.3615 26.3833 75.3233 26.2045 75.2491C26.0257 75.1749 25.8632 75.0661 25.7265 74.929C25.5898 74.7919 25.4815 74.6293 25.4077 74.4503C25.334 74.2712 25.2964 74.0794 25.2969 73.8858C25.2969 73.4955 25.4519 73.1211 25.7279 72.845C26.0039 72.569 26.3783 72.4141 26.7686 72.4141H43.9497C44.3397 72.4151 44.7134 72.5704 44.9892 72.8462C45.265 73.122 45.4204 73.4958 45.4214 73.8858C45.4214 74.2765 45.2665 74.6512 44.9906 74.9278C44.7147 75.2045 44.3404 75.3605 43.9497 75.3615Z" fill="#FF3E4C"/>
<path d="M67.3918 48.9553H50.6436C50.2533 48.9553 49.879 48.8002 49.603 48.5242C49.327 48.2482 49.1719 47.8738 49.1719 47.4835C49.1714 47.2899 49.2091 47.0981 49.2828 46.9191C49.3565 46.7401 49.4649 46.5773 49.6016 46.4402C49.7383 46.3032 49.9007 46.1944 50.0795 46.1202C50.2584 46.046 50.45 46.0078 50.6436 46.0078H67.3918C67.7832 46.0078 68.1585 46.1633 68.4353 46.44C68.712 46.7168 68.8675 47.0921 68.8675 47.4835C68.8664 47.8742 68.7105 48.2486 68.4339 48.5245C68.1572 48.8004 67.7825 48.9553 67.3918 48.9553Z" fill="#FF3E4C"/>
<path d="M67.3918 57.7521H50.6436C50.2533 57.7521 49.879 57.5971 49.603 57.3211C49.327 57.045 49.1719 56.6707 49.1719 56.2804C49.1714 56.0868 49.2091 55.895 49.2828 55.7159C49.3565 55.5369 49.4649 55.3742 49.6016 55.2371C49.7383 55.1 49.9007 54.9913 50.0795 54.9171C50.2584 54.8429 50.45 54.8047 50.6436 54.8047H67.3918C67.7832 54.8047 68.1585 54.9601 68.4353 55.2368C68.712 55.5136 68.8675 55.889 68.8675 56.2804C68.8664 56.6711 68.7105 57.0454 68.4339 57.3212C68.1572 57.5971 67.7825 57.7521 67.3918 57.7521Z" fill="#FF3E4C"/>
<path d="M67.3918 66.5568H50.6436C50.45 66.5568 50.2584 66.5186 50.0795 66.4444C49.9007 66.3702 49.7383 66.2615 49.6016 66.1244C49.4649 65.9873 49.3565 65.8246 49.2828 65.6456C49.2091 65.4665 49.1714 65.2747 49.1719 65.0811C49.1719 64.6908 49.327 64.3165 49.603 64.0405C49.879 63.7645 50.2533 63.6094 50.6436 63.6094H67.3918C67.7825 63.6094 68.1572 63.7643 68.4339 64.0402C68.7105 64.3161 68.8664 64.6904 68.8675 65.0811C68.8675 65.4725 68.712 65.8478 68.4353 66.1246C68.1585 66.4013 67.7832 66.5568 67.3918 66.5568Z" fill="#FF3E4C"/>
<path d="M67.3918 75.3615H50.6436C50.45 75.3615 50.2584 75.3233 50.0795 75.2491C49.9007 75.1749 49.7383 75.0661 49.6016 74.929C49.4649 74.7919 49.3565 74.6293 49.2828 74.4503C49.2091 74.2712 49.1714 74.0794 49.1719 73.8858C49.1719 73.4955 49.327 73.1211 49.603 72.845C49.879 72.569 50.2533 72.4141 50.6436 72.4141H67.3918C67.7825 72.4141 68.1572 72.569 68.4339 72.8449C68.7105 73.1208 68.8664 73.4951 68.8675 73.8858C68.8675 74.2772 68.712 74.6525 68.4353 74.9293C68.1585 75.206 67.7832 75.3615 67.3918 75.3615Z" fill="#FF3E4C"/>
</svg>
